<mxfile host="app.diagrams.net" modified="2023-11-12T15:44:41.258Z" agent="Mozilla/5.0 (Macintosh; Intel Mac OS X 10_15_7) AppleWebKit/537.36 (KHTML, like Gecko) Chrome/119.0.0.0 Safari/537.36" etag="hSNc0l2tGTbkCOJ-9DEm" version="22.1.0" type="device">
  <diagram name="Page-1" id="eAB9YPB4-p3l_WQ2d0Aq">
    <mxGraphModel dx="1224" dy="1760" grid="1" gridSize="10" guides="1" tooltips="1" connect="1" arrows="1" fold="1" page="1" pageScale="1" pageWidth="850" pageHeight="1100" math="0" shadow="0">
      <root>
        <mxCell id="0" />
        <mxCell id="1" parent="0" />
        <mxCell id="PBXWYQk9A3wic1isMDUN-1" value="" style="group" vertex="1" connectable="0" parent="1">
          <mxGeometry x="454.2168674698795" y="-729" width="625.7831325301204" height="580" as="geometry" />
        </mxCell>
        <mxCell id="PBXWYQk9A3wic1isMDUN-2" value="" style="group" vertex="1" connectable="0" parent="PBXWYQk9A3wic1isMDUN-1">
          <mxGeometry width="625.7831325301204" height="580" as="geometry" />
        </mxCell>
        <mxCell id="PBXWYQk9A3wic1isMDUN-3" value="" style="rounded=0;whiteSpace=wrap;html=1;fillColor=#eeeeee;strokeColor=#36393d;" vertex="1" parent="PBXWYQk9A3wic1isMDUN-2">
          <mxGeometry y="90" width="625.78" height="430" as="geometry" />
        </mxCell>
        <mxCell id="PBXWYQk9A3wic1isMDUN-4" value="" style="group" vertex="1" connectable="0" parent="PBXWYQk9A3wic1isMDUN-2">
          <mxGeometry x="19.156626506024097" y="199" width="204.34" height="301" as="geometry" />
        </mxCell>
        <mxCell id="PBXWYQk9A3wic1isMDUN-5" value="Protocol Engines&lt;br&gt;&lt;br&gt;&lt;br&gt;&lt;br&gt;&lt;br&gt;" style="html=1;overflow=block;blockSpacing=1;whiteSpace=wrap;fontSize=14;fontColor=#ffffff;spacing=3.8;strokeColor=#B20000;strokeOpacity=100;fillOpacity=100;rounded=1;absoluteArcSize=1;arcSize=9;fillColor=#e51400;strokeWidth=0.8;lucidId=~~6K7ca9YZYn;fontStyle=1" vertex="1" parent="PBXWYQk9A3wic1isMDUN-4">
          <mxGeometry width="204.34" height="108.5" as="geometry" />
        </mxCell>
        <mxCell id="PBXWYQk9A3wic1isMDUN-6" value="Packet Processing Pipeline" style="html=1;overflow=block;blockSpacing=1;whiteSpace=wrap;fontSize=14;fontColor=#ffffff;spacing=3.8;strokeColor=#B20000;strokeOpacity=100;fillOpacity=100;rounded=1;absoluteArcSize=1;arcSize=9;fillColor=#e51400;strokeWidth=0.8;lucidId=ca7KPe8sUfcH;fontStyle=1" vertex="1" parent="PBXWYQk9A3wic1isMDUN-4">
          <mxGeometry y="120" width="204.33734939759034" height="60" as="geometry" />
        </mxCell>
        <mxCell id="PBXWYQk9A3wic1isMDUN-7" value="NVMe" style="html=1;overflow=block;blockSpacing=1;whiteSpace=wrap;fontSize=14;spacing=3.8;strokeColor=#d79b00;strokeOpacity=100;fillOpacity=100;rounded=1;absoluteArcSize=1;arcSize=9;fillColor=#FF6666;strokeWidth=0.8;lucidId=Ua7KMCPptFoE;fontStyle=1;gradientColor=#ffa500;" vertex="1" parent="PBXWYQk9A3wic1isMDUN-4">
          <mxGeometry x="136.6265060240964" y="51" width="60" height="45" as="geometry" />
        </mxCell>
        <mxCell id="PBXWYQk9A3wic1isMDUN-8" value="LAN" style="html=1;overflow=block;blockSpacing=1;whiteSpace=wrap;fontSize=14;spacing=3.8;strokeColor=#d79b00;strokeOpacity=100;fillOpacity=100;rounded=1;absoluteArcSize=1;arcSize=9;fillColor=#FF6666;strokeWidth=0.8;lucidId=Ua7KMCPptFoE;fontStyle=1;gradientColor=#ffa500;" vertex="1" parent="PBXWYQk9A3wic1isMDUN-4">
          <mxGeometry x="75.16650602409635" y="51" width="60" height="45" as="geometry" />
        </mxCell>
        <mxCell id="PBXWYQk9A3wic1isMDUN-9" value="RDMA" style="html=1;overflow=block;blockSpacing=1;whiteSpace=wrap;fontSize=14;spacing=3.8;strokeColor=#d79b00;strokeOpacity=100;fillOpacity=100;rounded=1;absoluteArcSize=1;arcSize=8;fillColor=#FF6666;strokeWidth=0.8;lucidId=Ua7KMCPptFoE;fontStyle=1;gradientColor=#ffa500;" vertex="1" parent="PBXWYQk9A3wic1isMDUN-4">
          <mxGeometry x="10" y="50" width="62.17" height="46" as="geometry" />
        </mxCell>
        <mxCell id="PBXWYQk9A3wic1isMDUN-10" value="L3 Cache &lt;br&gt;(Last Level&lt;br&gt;Cache)" style="html=1;overflow=block;blockSpacing=1;whiteSpace=wrap;fontSize=14;spacing=3.8;strokeColor=#d6b656;strokeOpacity=100;fillOpacity=100;rounded=1;absoluteArcSize=1;arcSize=0;fillColor=#fff2cc;strokeWidth=0.8;lucidId=ra7KsMhs7qSS;fontStyle=1;gradientColor=#ffd966;" vertex="1" parent="PBXWYQk9A3wic1isMDUN-2">
          <mxGeometry x="260" y="125" width="100" height="375" as="geometry" />
        </mxCell>
        <mxCell id="PBXWYQk9A3wic1isMDUN-11" value="Compute Core Complex (ARM)" style="html=1;overflow=block;blockSpacing=1;whiteSpace=wrap;fontSize=14;fontColor=#ffffff;spacing=3.8;strokeColor=#006EAF;strokeOpacity=100;fillOpacity=100;rounded=1;absoluteArcSize=1;arcSize=9;fillColor=#1ba1e2;strokeWidth=0.8;lucidId=Ca7KuzQSQbgJ;fontStyle=1" vertex="1" parent="PBXWYQk9A3wic1isMDUN-2">
          <mxGeometry x="402.29" y="125" width="204.34" height="115" as="geometry" />
        </mxCell>
        <mxCell id="PBXWYQk9A3wic1isMDUN-13" value="LPDDR4 Controllers" style="html=1;overflow=block;blockSpacing=1;whiteSpace=wrap;fontSize=14;spacing=3.8;strokeColor=#d6b656;strokeOpacity=100;fillOpacity=100;rounded=1;absoluteArcSize=1;arcSize=9;fillColor=#fff2cc;strokeWidth=0.8;lucidId=ub7KovHv9te5;fontStyle=1;gradientColor=#ffd966;" vertex="1" parent="PBXWYQk9A3wic1isMDUN-2">
          <mxGeometry x="402.29" y="250" width="204.34" height="60" as="geometry" />
        </mxCell>
        <mxCell id="PBXWYQk9A3wic1isMDUN-15" value="&lt;div style=&quot;font-size: 14px;&quot;&gt;Ethernet Logic&lt;/div&gt;&lt;div style=&quot;font-size: 14px;&quot;&gt;(200/400G)&lt;/div&gt;" style="html=1;overflow=block;blockSpacing=1;whiteSpace=wrap;fontSize=14;fontColor=#ffffff;spacing=3.8;strokeColor=#B20000;strokeOpacity=100;fillOpacity=100;rounded=1;absoluteArcSize=1;arcSize=9;fillColor=#e51400;strokeWidth=0.8;lucidId=ja7KJcIPla4~;fontStyle=1" vertex="1" parent="PBXWYQk9A3wic1isMDUN-2">
          <mxGeometry x="20" y="439" width="210.12" height="61" as="geometry" />
        </mxCell>
        <mxCell id="PBXWYQk9A3wic1isMDUN-16" value="PCIe 8/16/32 Lanes" style="html=1;overflow=block;blockSpacing=1;whiteSpace=wrap;fontSize=14;fontColor=#ffffff;spacing=3.8;strokeColor=#B20000;strokeOpacity=100;fillOpacity=100;rounded=1;absoluteArcSize=1;arcSize=9;fillColor=#e51400;strokeWidth=0.8;lucidId=1~6K_v-VPYom;fontStyle=1" vertex="1" parent="PBXWYQk9A3wic1isMDUN-2">
          <mxGeometry x="19.15662650602411" y="130" width="204.33734939759034" height="60" as="geometry" />
        </mxCell>
        <mxCell id="PBXWYQk9A3wic1isMDUN-17" value="IPSec/TLS Encryption Engine" style="html=1;overflow=block;blockSpacing=1;whiteSpace=wrap;fontSize=14;fontColor=#ffffff;spacing=3.8;strokeColor=#B20000;strokeOpacity=100;fillOpacity=100;rounded=1;absoluteArcSize=1;arcSize=9;fillColor=#e51400;strokeWidth=0.8;lucidId=fa7K2U30uZY5;fontStyle=1" vertex="1" parent="PBXWYQk9A3wic1isMDUN-2">
          <mxGeometry x="20" y="390" width="200" height="40" as="geometry" />
        </mxCell>
        <mxCell id="PBXWYQk9A3wic1isMDUN-19" value="Host" style="html=1;overflow=block;blockSpacing=1;whiteSpace=wrap;fontSize=15;fontColor=#3a414a;spacing=3.8;strokeColor=#3a414a;strokeOpacity=100;rounded=1;absoluteArcSize=1;arcSize=9;strokeWidth=0.8;lucidId=P-_KfFqmB5sf;fontStyle=1" vertex="1" parent="PBXWYQk9A3wic1isMDUN-2">
          <mxGeometry x="65.7831325301205" width="105" height="30" as="geometry" />
        </mxCell>
        <mxCell id="PBXWYQk9A3wic1isMDUN-20" value="" style="shape=singleArrow;arrowWidth=0.5;arrowSize=0.45;whiteSpace=wrap;fontSize=13;spacing=3.8;strokeColor=#3a414a;strokeOpacity=100;rounded=1;absoluteArcSize=1;arcSize=9;rotation=270;strokeWidth=0.8;html=1;" vertex="1" parent="PBXWYQk9A3wic1isMDUN-2">
          <mxGeometry x="121.87" y="45.13" width="56.51" height="33.25" as="geometry" />
        </mxCell>
        <mxCell id="PBXWYQk9A3wic1isMDUN-21" value="" style="shape=singleArrow;arrowWidth=0.5;arrowSize=0.465;whiteSpace=wrap;fontSize=13;spacing=3.8;strokeColor=#3a414a;strokeOpacity=100;rounded=1;absoluteArcSize=1;arcSize=9;rotation=90;strokeWidth=0.8;html=1;" vertex="1" parent="PBXWYQk9A3wic1isMDUN-2">
          <mxGeometry x="63" y="43" width="60" height="35" as="geometry" />
        </mxCell>
        <mxCell id="PBXWYQk9A3wic1isMDUN-22" value="" style="shape=singleArrow;arrowWidth=0.5;arrowSize=0.45;whiteSpace=wrap;fontSize=13;spacing=3.8;strokeColor=#3a414a;strokeOpacity=100;rounded=1;absoluteArcSize=1;arcSize=9;rotation=270;strokeWidth=0.8;html=1;" vertex="1" parent="PBXWYQk9A3wic1isMDUN-2">
          <mxGeometry x="133.49" y="529" width="56.51" height="33.25" as="geometry" />
        </mxCell>
        <mxCell id="PBXWYQk9A3wic1isMDUN-23" value="" style="shape=singleArrow;arrowWidth=0.5;arrowSize=0.465;whiteSpace=wrap;fontSize=13;spacing=3.8;strokeColor=#3a414a;strokeOpacity=100;rounded=1;absoluteArcSize=1;arcSize=9;rotation=90;strokeWidth=0.8;html=1;" vertex="1" parent="PBXWYQk9A3wic1isMDUN-2">
          <mxGeometry x="61.870000000000005" y="534" width="60" height="35" as="geometry" />
        </mxCell>
        <mxCell id="PBXWYQk9A3wic1isMDUN-32" value="L2 Cache" style="html=1;overflow=block;blockSpacing=1;whiteSpace=wrap;fontSize=14;spacing=3.8;strokeColor=#d6b656;strokeOpacity=100;fillOpacity=100;rounded=1;absoluteArcSize=1;arcSize=9;fillColor=#fff2cc;strokeWidth=0.8;lucidId=ub7KovHv9te5;fontStyle=1;gradientColor=#ffd966;" vertex="1" parent="PBXWYQk9A3wic1isMDUN-2">
          <mxGeometry x="402.2900000000001" y="330" width="204.34" height="60" as="geometry" />
        </mxCell>
        <mxCell id="PBXWYQk9A3wic1isMDUN-24" value="Network" style="html=1;overflow=block;blockSpacing=1;whiteSpace=wrap;ellipse;shape=cloud;fontSize=15;fontColor=#3a414a;spacing=3.8;strokeColor=#3a414a;strokeOpacity=100;rounded=1;absoluteArcSize=1;arcSize=9;strokeWidth=0.8;lucidId=P-_KW_uM1pLi;fontStyle=1" vertex="1" parent="1">
          <mxGeometry x="520" y="-160" width="120" height="90" as="geometry" />
        </mxCell>
        <mxCell id="PBXWYQk9A3wic1isMDUN-25" value="&lt;b&gt;&lt;font style=&quot;font-size: 14px;&quot;&gt;Networking Subsystems&lt;br&gt;&lt;/font&gt;&lt;/b&gt;" style="text;html=1;align=center;verticalAlign=middle;resizable=0;points=[];autosize=1;strokeColor=none;fillColor=none;" vertex="1" parent="1">
          <mxGeometry x="474" y="-70" width="190" height="30" as="geometry" />
        </mxCell>
        <mxCell id="PBXWYQk9A3wic1isMDUN-26" value="" style="ellipse;whiteSpace=wrap;html=1;aspect=fixed;fillColor=#e51400;fontColor=#ffffff;strokeColor=#B20000;" vertex="1" parent="1">
          <mxGeometry x="463.37" y="-65" width="20" height="20" as="geometry" />
        </mxCell>
        <mxCell id="PBXWYQk9A3wic1isMDUN-27" value="&lt;b style=&quot;font-size: 14px;&quot;&gt;Compute Subsystems&lt;br&gt;&lt;/b&gt;" style="text;html=1;align=center;verticalAlign=middle;resizable=0;points=[];autosize=1;strokeColor=none;fillColor=none;" vertex="1" parent="1">
          <mxGeometry x="670" y="-70" width="170" height="30" as="geometry" />
        </mxCell>
        <mxCell id="PBXWYQk9A3wic1isMDUN-28" value="" style="ellipse;whiteSpace=wrap;html=1;aspect=fixed;fillColor=#1ba1e2;fontColor=#ffffff;strokeColor=#006EAF;" vertex="1" parent="1">
          <mxGeometry x="659.9999999999999" y="-65" width="20" height="20" as="geometry" />
        </mxCell>
        <mxCell id="PBXWYQk9A3wic1isMDUN-29" value="&lt;b style=&quot;font-size: 14px;&quot;&gt;Memory &amp;amp; Storage&lt;br&gt;&lt;/b&gt;" style="text;html=1;align=center;verticalAlign=middle;resizable=0;points=[];autosize=1;strokeColor=none;fillColor=none;" vertex="1" parent="1">
          <mxGeometry x="850" y="-70" width="150" height="30" as="geometry" />
        </mxCell>
        <mxCell id="PBXWYQk9A3wic1isMDUN-30" value="" style="ellipse;whiteSpace=wrap;html=1;aspect=fixed;fillColor=#fff2cc;gradientColor=#ffd966;strokeColor=#d6b656;" vertex="1" parent="1">
          <mxGeometry x="836.51" y="-65" width="20" height="20" as="geometry" />
        </mxCell>
      </root>
    </mxGraphModel>
  </diagram>
</mxfile>
